<svg width="100" height="100" viewBox="0 0 100 100" fill="none" xmlns="http://www.w3.org/2000/svg">
<g clip-path="url(#clip0_645_5)">
<path d="M93.9145 26.7501C93.4195 24.7726 92.4115 22.9608 90.9922 21.4976C89.5729 20.0344 87.7926 18.9717 85.8312 18.4167C78.6645 16.6667 49.9978 16.6667 49.9978 16.6667C49.9978 16.6667 21.3312 16.6667 14.1645 18.5834C12.203 19.1384 10.4227 20.2011 9.00344 21.6643C7.58414 23.1275 6.57611 24.9393 6.08116 26.9167C4.76955 34.1899 4.12797 41.568 4.16449 48.9584C4.11774 56.4044 4.75936 63.8388 6.08116 71.1668C6.62682 73.0828 7.65744 74.8257 9.07342 76.2271C10.4894 77.6285 12.2429 78.641 14.1645 79.1668C21.3312 81.0834 49.9978 81.0834 49.9978 81.0834C49.9978 81.0834 78.6645 81.0834 85.8312 79.1668C87.7926 78.6118 89.5729 77.5491 90.9922 76.0859C92.4115 74.6227 93.4195 72.8109 93.9145 70.8334C95.216 63.615 95.8575 56.2931 95.8312 48.9584C95.8779 41.5124 95.2363 34.078 93.9145 26.7501Z" stroke="white" stroke-width="8.33333" stroke-linecap="round" stroke-linejoin="round"/>
<path d="M40.625 62.5833L64.5833 48.9583L40.625 35.3333V62.5833Z" stroke="white" stroke-width="8.33333" stroke-linecap="round" stroke-linejoin="round"/>
</g>
<defs>
<clipPath id="clip0_645_5">
<rect width="100" height="100" fill="white"/>
</clipPath>
</defs>
</svg>
