<svg width="100" height="100" viewBox="0 0 100 100" fill="none" xmlns="http://www.w3.org/2000/svg">
<path d="M86.6012 9.96745C86.477 9.97138 86.3531 9.98225 86.2301 10H66.6663C66.2246 9.99376 65.7861 10.0754 65.3762 10.2401C64.9663 10.4048 64.5932 10.6493 64.2787 10.9595C63.9641 11.2696 63.7143 11.6392 63.5438 12.0467C63.3733 12.4542 63.2855 12.8916 63.2855 13.3333C63.2855 13.7751 63.3733 14.2124 63.5438 14.62C63.7143 15.0275 63.9641 15.3971 64.2787 15.7072C64.5932 16.0174 64.9663 16.2619 65.3762 16.4266C65.7861 16.5913 66.2246 16.6729 66.6663 16.6667H78.6195L44.3096 50.9766C43.9897 51.2837 43.7342 51.6516 43.5583 52.0587C43.3823 52.4658 43.2894 52.9039 43.2849 53.3474C43.2804 53.7909 43.3644 54.2308 43.532 54.6414C43.6996 55.052 43.9475 55.425 44.2611 55.7386C44.5747 56.0522 44.9477 56.3 45.3583 56.4677C45.7689 56.6353 46.2088 56.7193 46.6523 56.7148C47.0958 56.7103 47.5339 56.6173 47.941 56.4414C48.3481 56.2654 48.716 56.01 49.0231 55.6901L83.333 21.3802V33.3333C83.3268 33.775 83.4084 34.2136 83.5731 34.6235C83.7378 35.0334 83.9823 35.4064 84.2925 35.721C84.6026 36.0356 84.9722 36.2854 85.3797 36.4559C85.7872 36.6263 86.2246 36.7141 86.6663 36.7141C87.1081 36.7141 87.5454 36.6263 87.953 36.4559C88.3605 36.2854 88.7301 36.0356 89.0402 35.721C89.3504 35.4064 89.5949 35.0334 89.7596 34.6235C89.9243 34.2136 90.0059 33.775 89.9997 33.3333V13.7565C90.0661 13.2766 90.027 12.788 89.8853 12.3247C89.7436 11.8614 89.5026 11.4345 89.1792 11.0739C88.8557 10.7132 88.4575 10.4274 88.0122 10.2363C87.567 10.0452 87.0855 9.95347 86.6012 9.96745ZM19.9997 23.3333C16.3561 23.3333 13.333 26.3565 13.333 30V80C13.333 83.6435 16.3561 86.6667 19.9997 86.6667H69.9997C73.6432 86.6667 76.6663 83.6435 76.6663 80V46.6667V38.0729L69.9997 44.7396V53.3333V80H19.9997V30H46.6663H53.333H55.2601L61.9268 23.3333H53.333H46.6663H19.9997Z" fill="white"/>
</svg>
