<svg width="100" height="100" viewBox="0 0 100 100" fill="none" xmlns="http://www.w3.org/2000/svg">
<path d="M25.4102 10.7031L60 45.2865L68.9258 36.3607C56.7291 28.9607 40.3935 19.0336 33.0469 14.5703L28.125 11.5885C27.255 11.0585 26.3235 10.7731 25.4102 10.7031ZM20.1302 14.8437C20.0602 15.2237 20 15.6056 20 16.0156V84.362C20 84.6486 20.0577 84.9155 20.0977 85.1888L55.2865 50L20.1302 14.8437ZM74.7917 39.9219L64.7135 50L74.6159 59.9023C79.8626 56.7223 83.4964 54.5142 83.8997 54.2708C85.6831 53.1808 86.6902 51.5362 86.6602 49.7396C86.6335 47.9762 85.6261 46.3997 83.9128 45.4297C83.5294 45.2097 79.945 43.0452 74.7917 39.9219ZM60 54.7135L25.5143 89.1992C26.1843 89.0826 26.8535 88.8828 27.4935 88.4961C28.3802 87.9561 52.3333 73.4235 68.75 63.4635L60 54.7135Z" fill="white"/>
</svg>
